<?xml version="1.0" encoding="UTF-8"?>
<svg width="78px" height="78px" viewBox="0 0 78 78" version="1.1" xmlns="http://www.w3.org/2000/svg" xmlns:xlink="http://www.w3.org/1999/xlink">
    <!-- Generator: Sketch 49 (51002) - http://www.bohemiancoding.com/sketch -->
    <title>JumpStartIcon</title>
    <desc>Created with Sketch.</desc>
    <defs></defs>
    <g id="Page-1" stroke="none" stroke-width="1" fill="none" fill-rule="evenodd">
        <g id="Home---Wave0--Breakpoint2" transform="translate(-523.000000, -136.000000)" fill="#7F7F7F" fill-rule="nonzero">
            <g id="JumpStartIcon" transform="translate(523.000000, 136.000000)">
                <rect id="Rectangle-path" x="13.3333333" y="24.5555556" width="13.3333333" height="20" rx="0.5"></rect>
                <rect id="Rectangle-path" x="32.3777778" y="10.6444444" width="13.3333333" height="6.66666667" rx="0.5"></rect>
                <rect id="Rectangle-path" x="32.3777778" y="19.4" width="13.3333333" height="6.66666667" rx="0.5"></rect>
                <rect id="Rectangle-path" x="32.3777778" y="28.1333333" width="13.3333333" height="6.66666667" rx="0.5"></rect>
                <rect id="Rectangle-path" x="51.1333333" y="24.8" width="13.3333333" height="8.88888889" rx="0.5"></rect>
                <path d="M60.0222222,44.5333333 L60.0222222,62.4444444 L55.5777778,62.4444444 L55.5777778,44.5333333 L51.6333333,44.5333333 C51.357191,44.5333333 51.1333333,44.3094757 51.1333333,44.0333333 L51.1333333,36.1444444 C51.1333333,35.8683021 51.357191,35.6444444 51.6333333,35.6444444 L63.9666667,35.6444444 C64.242809,35.6444444 64.4666667,35.8683021 64.4666667,36.1444444 L64.4666667,44.0333333 C64.4666667,44.3094757 64.242809,44.5333333 63.9666667,44.5333333 L60.0222222,44.5333333 Z" id="Combined-Shape"></path>
                <rect id="Rectangle-path" x="36.8222222" y="31.9333333" width="4.44444444" height="15.5555556"></rect>
                <rect id="Rectangle-path" x="36.8222222" y="56.6666667" width="4.44444444" height="6.66666667"></rect>
                <rect id="Rectangle-path" transform="translate(40.300000, 63.133333) rotate(90.000000) translate(-40.300000, -63.133333) " x="38.0777778" y="36.4111111" width="4.44444444" height="53.4444444"></rect>
                <rect id="Rectangle-path" x="17.7777778" y="43.5111111" width="4.44444444" height="8.73333333"></rect>
                <rect id="Rectangle-path" transform="translate(25.911111, 52.333333) rotate(90.000000) translate(-25.911111, -52.333333) " x="23.6888889" y="31.8" width="4.44444444" height="41.0666667"></rect>
                <circle id="Oval" cx="48.2666667" cy="52.3111111" r="5.55555556"></circle>
                <path d="M39,7.02222222 C51.9398364,6.99524544 63.6205394,14.7692537 68.5911041,26.7163697 C73.5616688,38.6634856 70.8422659,52.4286183 61.7019527,61.5880269 C52.5616394,70.7474355 38.802212,73.4955596 26.8447487,68.5499389 C14.8872855,63.6043181 7.08891701,51.9398645 7.08888889,39 C7.10106379,21.3702171 21.3702809,7.07118965 39,7.02222222 Z M39,0.355555556 C17.6630654,0.380094887 0.3836565,17.6926531 0.400011352,39.0295956 C0.416366205,60.366538 17.7222951,77.6525864 39.0592422,77.6444161 C60.3961893,77.6362457 77.6888748,60.3369487 77.6888889,39 C77.6888957,28.743151 73.6113387,18.9070439 66.3544842,11.6585258 C59.0976297,4.41000768 49.2568423,0.343759294 39,0.355555556 Z" id="Shape"></path>
            </g>
        </g>
    </g>
</svg>